#!OML:ASF F:\VICON\USERDATA\INSTALL\rory3\rory3.ASF
:FULLY-SPECIFIED
:DEGREES
1
root 0.4106850000000006 18.0493 -29.325899999999976 -3.454780000000001 -0.9963840000000016 -0.7637760000000049
lfemur -12.478699999999993 0.003244920000002871 -23.032000000000004
ltibia 22.999200000000005
lfoot -4.779719999999997 -3.8768199999999995
ltoes -28.35930000000002
rfemur -13.5872 -1.3730699999999914 22.791399999999996
rtibia 71.87850000000002
rfoot 4.370459999999989 -6.678689999999998
rtoes 2.5044800000000005
lowerback 12.601299999999998 1.0060699999999985 -0.4383839999999999
upperback 0.7028620000000011 1.3257600000000014 0.7980750000000001
thorax -6.36137 0.6727169999999995 0.8514590000000007
lowerneck -16.8143 -3.48249 -1.8858099999999998
upperneck 21.4695 -4.57105 0.9233460000000007
head 9.6373 -2.17138 0.03220040000000027
lclavicle 1.4026700000000024e-14 -3.6775200000000014e-15
lhumerus -32.4499 9.248410000000005 80.3469
lradius 21.328200000000006
lwrist 5.319760000000004
lhand -25.309200000000008 20.927399999999995
lfingers nan
lthumb 1.2129500000000086 50.9037
rclavicle 1.4026700000000024e-14 -3.6775200000000014e-15
rhumerus -25.990400000000005 -20.0858 -79.5672
rradius 25.467599999999997
rwrist 5.997790000000002
rhand -18.4138 23.1519
rfingers nan
rthumb 7.871009999999999 -6.681579999999999
2
root 0.443426 18.0621 -28.856200000000015 -3.7221600000000006 -0.5404559999999998 -0.6221049999999964
lfemur -10.7717 -0.2698950000000022 -23.408199999999997
ltibia 23.712400000000002
lfoot -6.405289999999999 -2.7892
ltoes -27.523200000000042
rfemur -17.021499999999993 -2.0955299999999983 22.668000000000006
rtibia 73.92979999999997
rfoot 1.0303299999999869 -8.26205
rtoes 0.8861859999999964
lowerback 13.255900000000004 0.7645390000000006 -0.6830270000000032
upperback 0.4319079999999999 0.9691550000000002 0.797364
thorax -7.013730000000001 0.5085309999999995 1.0453699999999992
lowerneck -16.4147 -3.27909 -1.7866799999999998
upperneck 21.7485 -4.3165 0.875673
head 9.65378 -2.05236 0.037667200000000095
lclavicle -6.417019999999998e-15 -2.9817699999999995e-15
lhumerus -31.6961 8.275509999999999 80.1892
lradius 21.345899999999993
lwrist 5.557469999999998
lhand -25.29069999999999 17.822399999999995
lfingers nan
lthumb 1.2307900000000047 47.7986
rclavicle -6.417019999999998e-15 -2.9817699999999995e-15
rhumerus -27.804199999999998 -22.089999999999996 -78.4565
rradius 24.8012
rwrist 6.26986
rhand -15.8994 21.083200000000005
rfingers nan
rthumb 10.297200000000002 -8.644699999999997
3
root 0.4680459999999998 18.0629 -28.37870000000001 -3.925509999999999 -0.1479599999999999 -0.6532850000000008
lfemur -8.918609999999997 -0.47198400000000107 -23.56579999999999
ltibia 23.828299999999984
lfoot -7.678159999999999 -1.9498900000000012
ltoes -27.342000000000027
rfemur -20.280799999999992 -2.6445500000000006 22.834199999999992
rtibia 74.38539999999993
rfoot -1.559940000000008 -8.4934
rtoes 0.17447699999999688
lowerback 12.858699999999999 0.6593589999999988 -0.7583889999999973
upperback 0.979035000000001 0.8199570000000006 0.8294929999999993
thorax -6.20717 0.43295099999999986 1.1549899999999997
lowerneck -17.3256 -3.37723 -1.71869
upperneck 22.2088 -4.48162 0.9379760000000004
head 9.98997 -2.10573 0.0055708899999998285
lclavicle -7.348819999999991e-15 -5.963540000000008e-15
lhumerus -29.3766 7.436290000000004 80.4271
lradius 21.6525
lwrist 5.572249999999996
lhand -25.418800000000005 21.614999999999995
lfingers nan
lthumb 1.1071000000000066 51.591899999999995
rclavicle -7.348819999999991e-15 -5.963540000000008e-15
rhumerus -28.2144 -23.731199999999994 -78.0857
rradius 24.1668
rwrist 6.726470000000004
rhand -16.220399999999998 21.1766
rfingers nan
rthumb 9.98754 -8.566440000000002
4
root 0.5020770000000003 18.0405 -27.90489999999997 -3.7179499999999974 1.1465300000000005 -0.18259399999999992
lfemur -7.69351 -0.9692080000000012 -24.335899999999988
ltibia 24.288500000000003
lfoot -9.422350000000002 -1.65891
ltoes -24.867500000000003
rfemur -23.538000000000018 -3.8253099999999955 22.328299999999995
rtibia 73.62359999999998
rfoot -4.101859999999998 -7.3692800000000025
rtoes 1.98465
lowerback 12.792499999999999 0.06532999999999997 -1.402170000000001
upperback 0.45995100000000094 -0.04859939999999913 0.9942039999999995
thorax -6.69715 0.036451900000000065 1.85203
lowerneck -15.8734 -3.0879600000000003 -2.14334
upperneck 22.1081 -3.976890000000001 0.8953820000000009
head 9.68347 -1.92473 0.15420299999999998
lclavicle -7.851990000000002e-15 2.9817699999999936e-15
lhumerus -29.3268 6.895939999999996 80.5977
lradius 22.499099999999995
lwrist 6.2426699999999995
lhand -25.204200000000007 21.815099999999997
lfingers nan
lthumb 1.3143800000000083 51.790800000000004
rclavicle -7.851990000000002e-15 2.9817699999999936e-15
rhumerus -30.3975 -23.119000000000003 -77.1703
rradius 24.293899999999994
rwrist 6.405389999999997
rhand -16.230599999999995 30.578400000000006
rfingers nan
rthumb 9.977670000000003 0.8348980000000044
